Coordinates
version=1
nRows=16
nColumns=36
inDegrees=yes

Units are S.I. units (second, meters, Newtons, ...)
If the header above contains a line with 'inDegrees', this indicates whether rotational values are in degrees (yes) or radians (no).

endheader
time	pelvis_tilt	pelvis_list	pelvis_rotation	pelvis_tx	pelvis_ty	pelvis_tz	hip_flexion_r	hip_adduction_r	hip_rotation_r	knee_angle_r	knee_angle_r_beta	ankle_angle_r	subtalar_angle_r	mtp_angle_r	hip_flexion_l	hip_adduction_l	hip_rotation_l	knee_angle_l	knee_angle_l_beta	ankle_angle_l	subtalar_angle_l	mtp_angle_l	lumbar_extension	lumbar_bending	lumbar_rotation	arm_flex_r	arm_add_r	arm_rot_r	elbow_flex_r	pro_sup_r	arm_flex_l	arm_add_l	arm_rot_l	elbow_flex_l	pro_sup_l
      2.96666670	     -3.19864288	     -4.96015042	      0.49735500	      1.30088222	      1.36032850	     -0.32996732	     -5.71570060	      5.70864094	     -9.21974857	      0.40293210	      0.00703249	    -22.99638176	      7.46106153	     -7.49999987	     -7.96175902	     -7.36976194	     -0.71903063	      2.64110841	      0.04609604	    -19.10282512	      8.23536326	     -7.49999987	     11.14296793	      5.07922053	     -2.27158226	    118.24933295	   -148.39983486	    137.54019997	      2.37169891	     56.68427218	    292.09771622	    -19.46449660	    258.20698796	     39.80373215	    100.76891922
      2.98333330	     -3.61427937	     -4.73556532	      0.52809021	      1.29723847	      1.35894900	     -0.32688966	     -5.31887363	      5.64059818	     -9.08513997	      0.43633360	      0.00761546	    -23.20407267	      7.43891875	     -7.49999987	     -7.29615457	     -7.05491173	     -0.49373679	      3.06102839	      0.05342502	    -20.52781447	      7.93335863	     -7.49999987	     11.85316053	      4.78356415	     -0.79301423	    124.27088613	   -154.02113052	    153.86798081	      1.43612119	     43.46259502	    295.36273720	    -16.36939254	    266.15839833	     38.73586351	    102.45503793
      3.00000000	     -4.23027780	     -4.70105261	      0.71771580	      1.29625826	      1.35665450	     -0.32732886	     -4.58629588	      5.73383273	     -8.99897004	      0.46748178	      0.00815910	    -23.36837093	      7.03006978	     -7.49999987	     -6.54658831	     -6.93342883	     -0.32674818	      3.04216320	      0.05309576	    -21.40169117	      8.03138971	     -7.49999987	     11.94433607	      4.40125055	      0.31805699	    132.48213385	   -158.45819192	    158.18501315	      1.44848350	     45.25597233	    299.58450900	    -15.39411879	    276.54903160	     35.78069319	    102.66980770
      3.01666670	     -4.52215763	     -4.67885662	      1.04944372	      1.29293814	      1.35227664	     -0.33011722	     -4.09781243	      5.75409791	     -9.19972715	      0.54984772	      0.00959665	    -23.51349226	      6.88690383	     -7.49999987	     -6.06532715	     -6.78485011	      0.00561796	      2.88010734	      0.05026736	    -22.43908179	      7.79683844	     -7.49999987	     12.24161647	      4.62401293	     -1.57393984	    141.37127403	   -159.91530955	    165.04875137	      1.51698771	     47.37344662	    303.88283997	    -13.71806148	    287.03484911	     30.49131463	    100.74253313
      3.03333330	     -4.75261204	     -4.66444597	      1.09519864	      1.29167967	      1.33666078	     -0.33062344	     -3.61921071	      5.72272067	     -9.20171294	      0.69437774	      0.01211918	    -24.21214437	      6.37869496	     -7.49999987	     -5.75857652	     -6.65794130	     -0.18038623	      2.70943295	      0.04728853	    -23.65885244	      7.56076170	     -7.49999987	     12.06954969	      4.80885350	     -3.76461492	    150.54552893	   -161.28812526	    174.92950385	      1.47734888	     44.56574478	    308.39461033	    -12.42067014	    298.40398223	     26.12889817	     94.39476269
      3.05000000	     -5.00348574	     -4.73893020	      1.13533615	      1.29168682	      1.32094001	     -0.33083318	     -3.24363903	      5.77103763	     -9.43566077	      0.71050288	      0.01240061	    -24.76348885	      6.03917611	     -7.49999987	     -5.42308150	     -6.64240720	     -0.29715304	      2.32624734	      0.04060068	    -24.71448682	      7.30689695	     -7.49999987	     12.33494535	      5.40730408	     -6.04928368	    156.55275596	   -162.30625747	    178.64687941	      1.52341421	     43.86081912	    312.81416799	    -11.15288330	    307.70003554	     21.73262736	     90.18695544
      3.06666670	     -5.05195126	     -4.58496167	      0.96279021	      1.28915768	      1.29664974	     -0.33124583	     -3.06964269	      5.57720502	     -9.44612274	      0.70664501	      0.01233328	    -24.83373946	      6.04536958	     -7.49999987	     -5.22446242	     -6.45881811	     -0.68631986	      2.13154585	      0.03720249	    -25.22077083	      6.84049686	     -7.49999987	     12.32679463	      5.18646291	     -7.40975606	    161.72211221	   -163.33072360	    180.84568544	      1.79570492	     47.03983518	    315.06506198	     -9.88194879	    313.06356300	     21.40365223	     88.70432821
      3.08333330	     -4.82128055	     -4.63617115	      0.71240988	      1.28377031	      1.27539596	     -0.32860404	     -3.08194860	      5.57857717	     -9.08214078	      0.78843431	      0.01376077	    -24.53402652	      5.84407134	     -7.49999987	     -5.10370543	     -6.58847844	     -1.23819915	      1.94858395	      0.03400921	    -25.16135155	      6.22248626	     -7.49999987	     11.97752795	      5.39154915	     -8.19907424	    165.21944372	   -164.55005903	    183.29351190	      1.73771229	     50.47264151	    317.89748230	     -9.39093414	    319.14600376	     20.37533203	     86.36492756
      3.10000000	     -4.40037612	     -4.78687001	      0.22880722	      1.28128904	      1.24769566	     -0.32877327	     -3.10597338	      5.64437114	     -8.85266930	      0.91462912	      0.01596329	    -23.59724625	      5.40811318	     -7.49999987	     -5.36737160	     -6.79722664	     -2.15763493	      1.52147282	      0.02655471	    -24.59042403	      5.74521163	     -7.49999987	     11.47265871	      5.73996207	    -10.06223175	    169.36636922	   -165.13535541	    185.95660061	      1.93668293	     54.90489444	    320.08120803	     -7.37158534	    323.08776417	     21.71121843	     82.63627890
      3.11666670	     -4.01101472	     -5.11130820	      0.07710067	      1.27539199	      1.21960712	     -0.33222681	     -2.98116029	      5.80290314	     -8.62065163	      1.00639496	      0.01756491	    -22.02441885	      5.05994105	     -7.49999987	     -5.39683054	     -7.19955816	     -2.88691755	      1.35573006	      0.02366195	    -24.62722065	      5.14581443	     -7.49999987	     11.20928979	      6.39003935	    -10.22605007	    171.55147676	   -165.92778787	    186.05851530	      2.26285575	     55.08140699	    322.89197946	     -6.27059052	    323.66741419	     22.43253365	     82.63545659
      3.13333330	     -3.04729109	     -5.35666820	      0.06846630	      1.27724635	      1.19956933	     -0.33074401	     -3.45952084	      5.87525217	     -8.41656980	      0.90180028	      0.01573938	    -20.35330091	      5.06737013	     -7.49999987	     -6.10010529	     -7.49621684	     -3.54920709	      1.05447298	      0.01840403	    -23.87297508	      4.92185238	     -7.49999987	     10.63107104	      7.10642515	     -8.35565797	    171.28814740	   -167.03887783	    183.94097419	      2.32331609	     60.89982277	    327.90399854	     -7.58021436	    334.02532172	     18.37349700	     76.01784813
      3.15000000	     -2.23377213	     -5.12412638	     -0.03303084	      1.27147222	      1.16813957	     -0.33318357	     -3.92030690	      5.44951648	     -8.08850828	      0.75538343	      0.01318393	    -18.31297258	      5.41501726	     -7.49999987	     -6.35681022	     -7.27685345	     -3.95633342	      1.23016495	      0.02147043	    -22.89301059	      4.43702623	     -7.49999987	      9.93114342	      7.03443755	     -6.86383900	    171.77554929	   -167.62345930	    184.99726961	      2.82959607	     62.45537414	    330.94831095	     -7.73487629	    337.26828431	     17.66730897	     75.62819754
      3.16666670	     -1.24857185	     -5.04894356	     -0.25187474	      1.26239890	      1.13321638	     -0.33706278	     -4.42774006	      5.10009535	     -7.60430145	      0.79047902	      0.01379646	    -17.14558885	      5.37374362	     -7.49999987	     -6.52730857	     -7.20798398	     -4.36317917	      1.42220164	      0.02482210	    -21.63945312	      4.20156186	     -7.49999987	      8.55490402	      7.03769697	     -6.02240435	    173.44814924	   -167.81174921	    185.54236991	      3.76445915	     63.01470345	    333.57303649	     -7.12651816	    338.67576170	     18.71846797	     75.80873853
      3.18333330	     -0.28010821	     -5.00342847	     -0.31282616	      1.24567900	      1.09910556	     -0.34047619	     -4.57413355	      4.68565409	     -7.23417552	      1.17854022	      0.02056941	    -15.94007852	      4.82625509	     -7.49999987	     -6.42106295	     -7.16783400	     -4.74614693	      1.94558449	      0.03395686	    -19.83770107	      4.00835507	     -7.49999987	      6.78364744	      7.35631928	     -4.12465484	    175.32544674	   -167.56784105	    187.96706327	      4.48966361	     65.95277399	    337.42557750	     -7.53927681	    344.92297847	     17.29189879	     75.25103245
      3.20000000	      1.47364249	     -4.72591136	     -0.78249456	      1.24188890	      1.06345459	     -0.34040214	     -5.62879005	      4.08480707	     -6.79010048	      2.16785867	      0.03783627	    -12.81720423	      4.24781912	     -7.49999987	     -7.35413047	     -6.80319824	     -4.81551239	      3.13515087	      0.05471871	    -15.77409444	      3.26119359	     -7.49999987	      3.90775930	      7.19905631	     -3.41249288	    178.19053084	   -166.69422689	    188.33272930	      6.19755224	     66.43787982	    340.98765014	     -7.30469489	    346.02491350	     17.35065700	     75.21346482
      3.21666670	      3.55594553	     -4.44043804	     -1.06063068	      1.22940412	      1.03264995	     -0.33986886	     -6.61930618	      3.59479096	     -5.81315670	      4.63297801	      0.08086072	     -7.34818963	      3.16328305	     -7.49999987	     -8.09760662	     -6.40710830	     -4.67958424	      5.92140685	      0.10334805	     -9.27948999	      2.32652299	     -7.49999987	      0.41049226	      7.07855855	     -1.39529141	    180.47148832	   -165.89426530	    186.80977559	      8.84768437	     70.84157500	    347.19641563	     -8.18594683	    354.80659385	     15.57923011	     72.63352050
